<svg width="1581" height="148" viewBox="0 0 1581 148" fill="none" xmlns="http://www.w3.org/2000/svg">
<path fill-rule="evenodd" clip-rule="evenodd" d="M478.471 118.937C472.725 118.937 468.388 116.812 466.26 112.982C463.352 107.746 465.287 103.707 466.473 98.1414C468.672 87.7986 471.611 79.0916 474.519 69.3971C477.387 59.8124 480.609 50.9158 484.095 42.1689C486.345 36.5337 487.034 35.1574 492.425 32.3847C501.646 27.6272 531.185 26.2209 531.185 38.718C531.185 49.9982 520.91 79.1514 516.867 90.322C515.144 95.0894 509.672 110.638 506.419 113.232C500.329 118.119 489.314 118.937 478.471 118.937ZM510.857 0H518.417C532.492 0.0498686 547.226 0.638318 558.343 5.75484C583.393 17.2944 578.255 32.6639 573.968 53.878C570.148 72.7383 558.343 115.047 547.166 128.461C544.298 131.902 544.044 131.813 540.822 134.665C529.158 144.998 506.095 147.98 490.408 147.98H489.841H473.1C448.962 147.511 419.444 143.482 419.444 115.476C419.444 93.8128 433.326 53.2597 441.018 34.3694C446.216 21.5931 451.708 13.7937 466.098 7.88921C478.055 2.99212 493.509 0 510.087 0H510.857ZM210.076 36.6534V89.2049H179.869L202.122 49.5694C203.551 47.056 208.313 37.93 210.076 36.6534ZM100.473 145.915H147.543C148.516 141.816 163.442 119.026 164.405 115.486H209.367V145.915H250.823V1.38635H205.861C191.492 1.38635 178.186 18.0923 171.296 28.9138C152.083 59.0743 131.127 95.1393 112.106 126.257C109.999 129.698 108.387 132.341 106.31 135.762C104.841 138.196 101.091 143.641 100.473 145.915ZM269.094 145.915H312.657L330.928 86.4422C333.167 88.058 339.116 104.146 340.788 107.866C341.882 110.309 343.2 113.202 344.193 115.585L356.93 145.915H399.785C398.032 142.654 396.897 139.492 395.103 136.002L371.178 86.9409C369.07 82.0737 362.24 71.0927 361.845 66.395C364.459 65.7069 364.662 64.4801 366.598 62.7746C368.553 61.0491 369.506 60.6103 371.502 58.6155L414.002 21.613C415.897 19.8876 416.951 19.3989 418.927 17.474C422.109 14.3522 435.799 3.5307 437.724 0.708134C425.797 0.708134 413.799 0.827819 401.882 0.69816C394.232 0.61837 396.39 0.239369 390.138 6.42307C388.182 8.35798 387.108 8.81677 385.203 10.5522C383.521 12.0782 382.274 13.4346 380.643 15.0603C372.739 22.9196 360.528 33.0429 352.522 40.6329C349.918 43.1064 346.31 48.213 342.875 49.1206L350.161 25.1737C351.549 21.0146 352.796 16.9055 354.032 13.0855C355.36 8.99629 356.647 4.87715 357.63 0.718108H314.066C312.901 3.09185 312.13 6.80208 311.168 9.61466C310.225 12.3375 309.293 15.6288 308.361 18.611L277.535 118.278C276.704 121.26 275.711 124.472 274.819 127.354C272.894 133.478 270.593 139.582 269.094 145.915ZM0.699208 140.38V123.096C6.63741 127.015 4.11418 130.965 7.02248 136.929C4.60058 138.186 2.94883 138.894 0.699208 140.38ZM4.21551 114.099C7.93449 112.164 11.7447 109.811 15.4535 107.876C22.1618 112.294 23.3171 115.007 24.4419 119.774C24.9688 122.018 25.9923 123.844 25.9923 125.858C25.9923 126.945 15.7068 132.341 14.045 132.77C13.8423 130.327 13.1937 129.429 12.6364 127.245C10.0321 117.022 11.2279 124.412 4.21551 114.099ZM2.10776 110.648C-1.09441 104.076 1.07415 104.156 6.10033 101.433C7.93449 100.445 10.9745 98.6401 12.6465 98.1913C12.6465 101.862 12.6769 102.27 13.3457 105.103C9.83958 106.031 5.65446 109.831 2.10776 110.648ZM13.3457 89.2049C13.3457 98.5004 12.7479 96.4359 1.39842 102.34C1.46935 99.3283 2.09762 98.5703 2.09762 94.7304C3.94191 93.7729 5.8774 92.975 7.68115 91.9377C9.60651 90.8406 10.7617 89.8034 13.3457 89.2049ZM31.6164 90.5913C31.6164 93.1944 32.0825 91.8978 32.3156 94.7403L21.0776 100.276C20.4088 97.4432 20.3784 97.0343 20.3784 93.364C23.7933 92.5761 28.9817 88.5666 30.7246 88.3173C33.8558 87.8585 31.6164 89.5341 31.6164 90.5913ZM62.5335 82.2932C66.6071 80.1687 70.4173 78.184 74.4808 76.0695L79.3347 81.6648C82.5166 84.5372 82.3545 85.5047 83.0132 89.1052C83.4996 91.7682 84.2495 92.3267 84.3204 95.4285C79.5273 96.5256 76.7304 99.9666 72.3731 100.964C67.7826 81.585 67.7522 92.0774 62.5335 82.2932ZM32.3257 85.7441L21.0776 91.9677C21.0776 82.7619 22.1213 83.8191 33.0249 78.1341C33.0249 81.6449 32.3257 81.9141 32.3257 85.7441ZM0.699208 91.2795V84.3677C3.2123 83.0511 8.70463 79.5005 11.238 78.8323C11.1063 80.4281 10.8631 81.8742 10.559 83.6994C9.91051 87.6091 9.68757 86.1729 4.77285 89.0753C3.23257 89.9929 2.22936 90.4816 0.699208 91.2795ZM15.4636 82.9813C15.4839 82.1635 16.1122 77.6055 16.3351 76.9273C17.237 74.2643 27.34 69.9557 30.2179 68.4596C30.2179 72.6885 30.3902 74.9325 27.9176 76.5682C27.0259 77.1567 26.0531 77.5058 25.1715 78.0144C23.0536 79.2312 17.5309 82.5026 15.4636 82.9813ZM0.699208 79.5205V72.6087C2.70563 71.5614 3.77978 71.0528 5.61393 69.8459C5.61393 71.5614 5.25926 74.5436 4.87419 76.0396C4.22565 78.6627 3.47577 78.8921 0.699208 79.5205ZM35.1327 72.6087C35.1327 65.0885 35.7609 65.1583 40.0474 62.9242V69.836C38.2132 71.0528 37.1391 71.5614 35.1327 72.6087ZM0.699208 71.2223V63.6124C2.8779 63.1137 2.73603 62.7247 4.91472 62.226C7.58995 67.7116 6.57661 68.1704 0.699208 71.2223ZM12.6465 73.2969C12.6465 63.752 13.4977 65.6071 25.2931 59.4633C22.8813 69.6664 27.8872 65.3677 12.6465 73.2969ZM91.3429 62.9242C88.009 63.6922 84.1583 67.3625 79.3955 68.4596C77.6931 61.2586 77.8654 62.2958 89.9343 56.0124C90.289 60.2113 89.7519 59.972 91.3429 62.9242ZM31.6164 62.9242C32.3257 61.468 33.0249 56.9001 33.0249 54.6261C35.8825 53.9678 37.9396 52.5615 40.0474 51.1652V58.7651C38.1828 59.7426 33.3593 62.4754 31.6164 62.9242ZM0.699208 59.4733V56.0124C4.79312 58.9646 1.86455 57.9872 0.699208 59.4733ZM14.0551 63.6223C14.0551 59.942 13.5788 59.4334 13.3559 56.7106C22.476 54.6161 25.3032 45.2208 25.3032 58.0969C22.0909 58.9347 17.2573 62.7746 14.0551 63.6223ZM97.6661 51.8633C100.372 50.4471 106.928 46.3379 109.613 45.6397C109.613 49.3101 109.644 49.719 110.313 52.5515C108.489 53.0303 104.192 55.5436 102.439 56.6407C96.8757 60.1016 99.4294 55.4738 97.6661 51.8633ZM90.6335 54.6261C85.8607 55.7232 83.4591 59.0644 78.6862 60.1615C80.9054 55.6134 78.139 53.8681 82.3545 51.3248C84.6852 49.9185 88.6575 47.6345 91.3327 47.0161C91.2719 50.0282 90.6335 50.7961 90.6335 54.6261ZM32.3257 46.3279C35.8015 45.53 37.2809 43.5951 40.0474 42.867V49.7788C37.5241 51.0954 36.0751 52.5415 33.0249 53.2397C33.3086 49.9284 33.6329 49.2203 32.3257 46.3279ZM0.699208 35.9553C0.699208 34.9579 4.97552 33.0828 6.1814 32.3647C8.22836 31.1379 9.80918 29.971 12.6465 29.7317C13.974 45.3704 20.7432 41.9894 22.4861 48.4025C20.1656 48.9311 18.7469 49.8486 16.6189 50.9258C14.0551 52.2224 13.2039 53.3195 10.5388 53.9379C7.94462 52.2324 8.7249 51.7038 4.57018 48.0534L0.699208 35.9553ZM98.3654 49.7888C98.4363 46.7867 99.0646 46.0187 99.0646 42.1789C103.148 40.0545 106.959 38.0697 111.012 35.9553C110.9 37.3217 110.566 39.7951 110.262 41.4408C109.725 44.403 109.583 43.8943 107.07 45.2109C103.939 46.8565 101.375 48.2229 98.3654 49.7888ZM93.4506 40.8025C93.4506 32.4246 94.4234 33.5915 98.4971 31.2477C100.605 30.0309 106.128 26.7595 108.205 26.2807C108.175 26.6897 107.445 31.9358 107.323 32.3248C106.452 35.1374 96.2677 39.3264 93.4506 40.8025ZM118.034 39.4161C118.034 29.6818 119.706 31.5568 125.898 27.7868C127.742 26.6597 128.34 26.1212 130.681 25.5826C128.482 30.0907 131.644 31.7364 126.546 34.6587C123.892 36.1846 120.649 37.6907 118.034 39.4161ZM19.669 24.8944C23.7528 22.77 27.5528 20.7852 31.6164 18.6708C32.954 21.4235 32.9438 26.2209 34.7577 29.4125C37.3519 33.9605 40.0474 31.4571 40.0474 38.7279C37.7065 39.2665 37.1087 39.8051 35.2644 40.9321C33.4708 42.0193 31.9812 42.6476 30.2179 43.5652C19.6589 36.6135 21.7058 29.3826 19.669 24.8944ZM112.42 30.4298C114.538 21.5033 109.482 25.1238 127.175 15.9081C127.175 20.1369 127.347 22.381 124.874 24.0167C123.983 24.6052 123.01 24.9542 122.128 25.4629C120.051 26.6498 114.427 29.9012 112.42 30.4298ZM39.3482 14.5217C40.1791 15.8183 40.1386 12.9758 39.9258 15.9081C39.8244 17.3842 39.8447 16.5265 39.3482 17.2944V14.5217ZM109.603 20.7453C111.954 10.8215 106.857 14.9307 122.25 6.91179C122.25 16.4666 121.399 14.6015 109.603 20.7453ZM108.904 69.8459L101.172 61.5478C104.891 59.6129 108.701 57.2591 112.41 55.3242C114.255 56.541 114.376 56.92 116.626 58.0869C118.977 53.7184 121.632 48.951 124.348 44.9515C121.743 45.6298 121.044 47.0261 118.024 47.7143C117.051 43.6051 118.075 44.3132 117.325 40.8025C120.598 40.0544 122.757 38.0198 125.756 36.6135C131.309 34.0004 128.705 37.9999 132.485 31.5269L141.909 15.2199C138.747 15.948 134.937 18.5611 132.069 20.0571C132.14 17.0451 132.768 16.2871 132.768 12.4472L145.212 6.08397C147.209 5.68502 146.357 8.78685 150.34 1.37637H140.5C140.429 4.59788 141.747 3.37112 135.991 6.62255C133.336 8.12858 131.603 8.81677 129.252 10.3627C129.252 6.76218 129.749 3.74014 131.36 1.37637H122.23C122.23 4.96691 122.817 4.94696 117.984 7.58003C116.281 8.50758 112.704 10.612 110.981 11.0609C110.981 7.39052 110.951 6.97163 110.282 4.14907C112.917 3.55064 113.464 2.86246 115.197 1.38635H103.25C102.429 4.86717 99.9867 6.34328 99.0342 10.3727C100.483 9.61466 100.696 9.41519 102.55 8.98632C103.219 11.8189 103.25 12.2378 103.25 15.8981C100.017 16.6362 99.3888 17.7632 96.6731 19.1595C92.8224 21.1343 92.873 19.2592 92.0015 22.8199C94.0688 22.2713 100.716 18.4913 102.54 17.2845C102.54 21.3238 101.841 22.1117 101.841 25.5826C99.2571 26.181 93.6533 29.5222 90.6031 31.118C90.6031 27.2881 91.2415 26.5201 91.3023 23.5081L82.1721 40.1043C84.3812 38.9573 86.1951 37.8403 88.4954 36.6434C88.4954 44.9715 86.874 44.8319 84.0671 46.1085C75.9907 49.7988 75.8083 50.0681 72.7683 55.7631C71.1266 58.825 71.5016 57.8775 71.4307 60.321C71.1672 69.4969 67.3671 63.4727 66.0194 68.4397C68.0765 67.9709 69.2722 67.2328 70.9341 66.3651C70.9341 70.0354 70.9645 70.4444 71.6333 73.2769C69.2418 74.5236 63.5975 78.543 60.7905 78.2338C60.7196 78.2239 60.5169 78.184 60.3953 78.1142L54.7713 87.7986C60.1015 89.195 64.6108 98.3808 64.6108 105.781C60.5473 107.896 56.6561 109.93 52.6635 112.005C52.5824 108.315 51.2448 100.475 47.7488 99.5577C46.9685 102.839 44.8608 103.976 43.9792 106.948C43.2495 109.422 45.3472 112.733 45.641 116.154C43.2293 116.702 36.3588 120.991 33.6937 122.378C33.1566 120.123 31.2718 112.693 30.2889 111.207C28.6979 108.803 24.6749 106.051 23.8541 103.019C25.668 102.6 32.9641 98.6002 35.0921 97.4831C37.5241 99.0789 38.882 100.944 40.7162 103.019V1.38635H0V145.915C13.1127 145.915 26.2355 145.896 39.3482 145.915C47.9717 145.925 49.9174 145.915 55.9873 142.933C68.3906 136.839 77.2067 123.973 83.834 112.254C88.6373 103.727 93.8357 96.2464 98.3654 87.8186C95.9536 88.3671 94.0384 89.544 92.0421 90.5813C90.4613 87.3398 90.6234 82.4128 88.6474 79.4008C86.6916 76.4286 82.5673 75.4711 82.2126 71.2123C87.0058 70.1152 89.8026 66.6743 94.16 65.6769C95.6901 67.921 97.2507 69.6864 99.2774 71.7011C101.405 73.8155 102.287 76.6081 102.591 80.1987C104.101 79.1215 108.408 71.9604 108.904 69.8459ZM99.0646 10.3727H98.3654L98.9531 11.1805L99.0646 10.3727ZM99.0646 86.4422H98.3654L98.9531 87.2501L99.0646 86.4422ZM108.904 69.8459H109.603L109.016 69.0381L108.904 69.8459ZM82.2025 40.1043H81.5033L82.091 40.9122L82.2025 40.1043ZM99.0646 86.4422H99.7638L99.176 85.6343L99.0646 86.4422ZM60.4257 78.1441H61.1249L60.5372 77.3362L60.4257 78.1441ZM66.0397 68.4596H65.3405L65.9282 69.2675L66.0397 68.4596ZM141.929 15.2099H142.628L142.04 14.402L141.929 15.2099ZM41.4559 111.337C41.5269 111.406 41.6687 111.027 41.6687 111.127C41.6485 111.147 41.385 111.267 41.4559 111.337ZM96.9568 13.1354L97.1696 12.9259C97.1595 12.9459 96.896 13.0656 96.9568 13.1354ZM61.1249 76.7577L61.3377 76.5483C61.3276 76.5682 61.054 76.6879 61.1249 76.7577ZM101.172 82.9813L101.385 82.7719C101.375 82.7918 101.101 82.9115 101.172 82.9813ZM54.1025 89.2049L54.3153 88.9955C54.295 89.0154 54.0315 89.1351 54.1025 89.2049ZM50.5862 95.4285L50.799 95.2191C50.7888 95.239 50.5152 95.3587 50.5862 95.4285ZM93.4506 19.359L93.6634 19.1495C93.6432 19.1695 93.3797 19.2892 93.4506 19.359ZM99.7739 85.0559L99.9867 84.8464C99.9664 84.8664 99.703 84.986 99.7739 85.0559ZM80.0947 42.877L80.3076 42.6676C80.2873 42.6775 80.0238 42.8072 80.0947 42.877ZM126.465 40.8025L126.678 40.593C126.668 40.603 126.405 40.7327 126.465 40.8025ZM144.736 10.3727L144.949 10.1632C144.929 10.1832 144.665 10.3029 144.736 10.3727ZM51.9947 92.6658L52.2075 92.4564C52.1872 92.4763 51.9238 92.596 51.9947 92.6658ZM142.628 13.8335L142.841 13.6241C142.821 13.6341 142.557 13.7637 142.628 13.8335ZM96.2576 14.5217L96.4704 14.3123C96.4501 14.3322 96.1867 14.4519 96.2576 14.5217ZM62.5335 73.995L62.7362 73.7856C62.726 73.7955 62.4626 73.9252 62.5335 73.995ZM69.556 61.5478L69.7688 61.3384C69.7586 61.3483 69.485 61.478 69.556 61.5478ZM113.12 62.9242L113.332 62.7147C113.312 62.7347 113.049 62.8544 113.12 62.9242ZM115.227 59.4733L115.44 59.2638C115.42 59.2738 115.156 59.4035 115.227 59.4733ZM48.4784 98.8894L48.6912 98.68C48.6811 98.6999 48.4075 98.8196 48.4784 98.8894ZM68.8568 62.9242L69.0696 62.7147C69.0493 62.7347 68.7858 62.8544 68.8568 62.9242ZM67.4482 65.6969L67.661 65.4874C67.6509 65.4974 67.3773 65.6271 67.4482 65.6969ZM77.987 47.0261L78.1998 46.8166C78.1897 46.8266 77.9161 46.9563 77.987 47.0261ZM51.2955 94.0422L51.5083 93.8327C51.488 93.8527 51.2246 93.9823 51.2955 94.0422ZM63.942 71.9205L64.1548 71.711C64.1346 71.721 63.8711 71.8507 63.942 71.9205ZM76.5886 49.1006L76.8014 48.8912C76.7811 48.9011 76.5177 49.0308 76.5886 49.1006ZM61.8343 75.3714L62.0471 75.1619C62.0268 75.1819 61.7633 75.3115 61.8343 75.3714ZM110.313 67.7714L110.525 67.562C110.505 67.5719 110.242 67.7016 110.313 67.7714ZM101.882 81.605L102.084 81.3955C102.074 81.4055 101.811 81.5351 101.882 81.605ZM144.037 11.759L144.25 11.5496C144.229 11.5595 143.966 11.6892 144.037 11.759ZM95.5584 15.9081L95.7712 15.6986C95.7509 15.7086 95.4875 15.8383 95.5584 15.9081ZM146.145 8.29813L146.357 8.08869C146.337 8.10863 146.074 8.22832 146.145 8.29813ZM40.7466 112.713L40.9594 112.504C40.9493 112.523 40.6858 112.653 40.7466 112.713ZM111.012 66.3851L111.225 66.1756C111.204 66.1956 110.941 66.3152 111.012 66.3851ZM64.6413 70.5341L64.854 70.3247C64.8338 70.3446 64.5703 70.4643 64.6413 70.5341ZM128.573 37.3416L128.786 37.1322C128.776 37.1521 128.502 37.2718 128.573 37.3416ZM127.175 39.4161L127.388 39.2067C127.367 39.2266 127.104 39.3463 127.175 39.4161ZM68.1576 64.3105L68.3704 64.1011C68.3501 64.121 68.0866 64.2407 68.1576 64.3105ZM112.42 64.3105L112.633 64.1011C112.613 64.121 112.35 64.2407 112.42 64.3105ZM78.6963 45.6397L78.9091 45.4303C78.8889 45.4502 78.6254 45.5699 78.6963 45.6397ZM125.766 42.1789L125.979 41.9794C125.959 41.9894 125.695 42.109 125.766 42.1789ZM79.3955 44.2534L79.6083 44.0439C79.5881 44.0639 79.3246 44.1836 79.3955 44.2534ZM124.358 44.2534L124.57 44.0439C124.56 44.0639 124.287 44.1836 124.358 44.2534ZM885.42 118.947C879.674 118.947 875.337 116.822 873.209 112.992C870.301 107.756 872.236 103.717 873.422 98.1514C876.665 82.8916 885.308 56.5709 891.034 42.1888C893.273 36.5537 893.973 35.1773 899.353 32.4046C908.575 27.6471 938.114 26.2409 938.114 38.7379C938.114 52.1825 924.758 88.2674 919.043 102.261C917.482 106.09 916.55 110.698 913.358 113.262C907.278 118.119 896.263 118.947 885.42 118.947ZM896.8 147.99H880.059C855.911 147.521 826.403 143.492 826.403 115.486C826.403 94.3414 844.795 30.8687 857.472 18.1322C870.889 4.64775 896.313 0 917.036 0H917.887H920.542C938.752 0.0199474 966.325 0.578476 977.877 14.1028C986.471 24.1563 984.555 29.4823 983.775 38.7279C984.707 37.6707 983.471 39.2665 984.738 37.6009C985.113 37.1122 985.244 36.9227 985.589 36.3741L989.946 29.602C991.973 26.5999 993.838 23.9469 996.239 21.2739C1006.72 9.60469 1019.86 3.88975 1036.04 1.66561C1044.09 0.558528 1116.68 1.38635 1128.5 1.38635C1128.43 4.55799 1127.1 7.1711 1126.24 10.233C1124.95 14.811 1118.73 32.7337 1118.66 35.9652H1081.42L1073.08 63.7121C1070.07 72.9877 1067.5 82.2931 1064.65 91.3692L1047.7 145.915H1002.73C1003.48 144.37 1004.25 141.058 1004.93 139.093L1015.65 104.694C1018.57 96.1367 1035.12 40.1542 1037.16 35.9652C1017.14 35.9652 998.57 34.9778 985.336 47.8938C980.705 52.4119 981.556 51.1552 979.945 58.4959C977.756 68.4895 972.943 86.2926 969.791 94.8401C963.751 111.227 960.681 123.475 947.386 135.024C942.674 139.113 933.412 143.482 925.852 144.948C917.391 146.594 906.883 148 897.337 148H896.8V147.99ZM1178.41 118.947C1172.66 118.947 1168.34 116.822 1166.2 112.992C1163.29 107.756 1165.22 103.717 1166.41 98.1514C1169.65 82.8916 1178.3 56.5709 1184.02 42.1888C1186.26 36.5537 1186.96 35.1773 1192.35 32.4046C1201.57 27.6471 1231.11 26.2409 1231.11 38.7379C1231.11 49.719 1212.44 108.384 1206.36 113.262C1200.27 118.119 1189.25 118.947 1178.41 118.947ZM1210.79 0H1218.36C1232.44 0.0498686 1247.17 0.638318 1258.28 5.75484C1262.42 7.65982 1267.92 10.642 1270.88 14.1028C1273.53 17.2047 1277.47 23.1091 1277.47 28.3553C1277.47 50.6864 1264.16 92.2569 1256.19 111.835C1253.28 118.996 1251.71 122.936 1247.1 128.471C1233.84 144.409 1211.08 147.99 1190.35 147.99H1189.78H1173.04C1148.9 147.521 1119.38 143.492 1119.38 115.486C1119.38 93.8228 1133.26 53.2696 1140.96 34.3794C1146.16 21.6031 1151.65 13.8036 1166.04 7.89918C1177.99 2.99212 1193.45 0 1210.02 0H1210.79ZM1359.68 74.6832H1334.38C1334.48 70.3347 1347.63 32.9133 1347.74 28.3453H1376.55C1388.03 28.3453 1391.6 49.9185 1379.18 63.4428C1374.59 68.4297 1370.8 74.6832 1359.68 74.6832ZM1269.04 145.915H1311.9C1313.29 143.053 1314.1 139.512 1315.16 135.982L1324.54 105.113H1351.24L1358.36 125.08C1360.46 131.314 1363.78 139.532 1365.3 145.915H1407.45L1392.7 100.964C1414.65 89.5341 1429.94 60.4806 1429.94 34.5789C1429.94 14.0031 1409.87 1.27664 1388.5 1.3664C1363.44 1.47611 1338.36 1.38635 1313.31 1.38635L1271.77 136.839C1270.93 139.532 1269.69 143.163 1269.04 145.915ZM1452.43 42.1789C1448.6 58.1468 1448.2 79.69 1466.34 87.3099C1482.49 94.0921 1511.62 90.6112 1515.43 92.9052C1523.05 97.5031 1519.31 107.926 1507.08 110.499C1495.72 112.883 1448.26 112.035 1434.87 112.035L1426.43 145.915C1450.96 145.915 1501.86 148.14 1519.81 143.083C1531.83 139.702 1540.61 133.329 1546.99 122.816C1559.82 101.692 1570.98 67.4024 1534.83 60.6701C1527.52 59.3037 1508.99 59.4833 1498.81 58.7751C1492.13 58.3163 1486.57 53.4691 1490.79 44.6823C1495.08 35.7658 1510.57 35.9652 1520.57 35.9652C1537.9 35.9652 1555.24 35.9652 1572.57 35.9652L1581 0.69816C1561.33 0.69816 1541.65 0.69816 1521.98 0.69816C1503.78 0.69816 1488.07 0.728081 1474.35 5.76481C1458.37 11.6294 1432.49 36.035 1434.01 53.7783C1436.53 53.6785 1442.09 44.5526 1452.43 42.1789ZM643.028 103.727C647.112 101.602 650.922 99.6175 654.975 97.5031C660.934 106.26 660.974 97.6926 665.514 116.862C662.444 117.57 656.161 122.218 652.867 123.086C652.563 119.475 651.398 114.329 649.675 111.706C648.54 109.98 647.801 109.392 646.372 108.045C645.774 107.477 645.055 106.888 644.578 106.35C642.602 104.166 643.91 105.382 643.028 103.727ZM647.943 89.2049C650.121 88.7062 649.979 88.3173 652.158 87.8186C651.773 89.4443 651.358 89.8133 651.581 91.9178C651.814 94.122 651.814 92.8453 651.945 93.4338C652.472 95.7976 652.432 95.1493 646.524 98.1813C643.98 99.4878 643.474 100.685 640.211 100.954C639.319 96.8049 641.173 97.4632 639.512 94.0422C640.697 93.4637 640.748 93.4039 641.619 92.6558H640.211L640.91 84.3577L652.857 78.1341C652.857 81.595 652.158 82.3929 652.158 86.4322C650.02 87.5593 649.351 87.3099 647.943 89.2049ZM668.321 78.1441L671.108 77.3661C671.138 81.2958 671.604 82.2233 671.837 85.0559C665.007 86.6217 659.282 94.8002 659.11 86.4023C659.018 82.0438 660.012 84.2679 661.998 81.595L659.211 82.3729C661.461 71.7908 657.529 75.5808 672.536 67.7614C672.06 69.7861 672.08 71.5614 671.574 73.7357C670.601 77.9346 670.317 75.4512 668.321 78.1441ZM720.306 61.5478C728.118 59.7625 731.746 49.8387 739.995 62.9142C741.241 64.879 742.721 71.5215 742.792 74.6832C738.738 76.7976 734.928 78.7824 730.844 80.9068C727.298 73.636 732.162 73.995 723.639 65.8664C723.031 65.288 722.332 64.6995 721.846 64.1709C719.89 61.9767 721.197 63.2035 720.306 61.5478ZM654.266 73.2969C654.337 70.2848 654.965 69.5268 654.965 65.6869L669.719 58.077C669.719 62.0964 669.446 65.258 667.196 66.6643C666.345 67.2029 665.494 67.4323 664.399 68.0606C662.038 69.4071 656.516 72.7882 654.266 73.2969ZM673.935 62.9242L674.776 54.636L688.689 47.7043C688.689 56.94 688.01 55.6035 673.935 62.9242ZM723.123 48.4025C725.534 47.8539 727.45 46.677 729.446 45.6397C729.446 49.4796 729.912 50.4072 730.145 53.2497C727.926 53.7583 723.994 56.2917 721.704 57.4686C716.414 60.1814 717.499 57.7478 717.499 51.8633C719.728 50.7064 721.694 50.3274 723.123 48.4025ZM676.043 42.1789C678.485 41.6203 681.657 39.8251 683.775 38.718C683.704 41.73 683.075 42.488 683.075 46.3279C679.377 48.7615 675.161 51.1452 671.128 53.2397C671.128 41.74 673.57 45.5001 676.043 42.1789ZM723.123 48.4025C720.437 49.0208 720.184 49.8686 717.499 50.477C721.542 42.1888 711.307 46.1384 730.844 35.9553C730.094 44.8019 729.487 44.6523 726.406 46.1085C724.004 47.2555 724.481 46.5773 723.123 48.4025ZM676.043 42.1789C673.864 42.6775 674.006 43.0665 671.827 43.5652C672.506 42.119 672.06 38.5684 671.128 36.6534C673.854 35.2371 680.552 31.0881 683.075 30.4298C683.481 32.1253 684.504 34.2298 683.987 36.2046C683.268 38.9573 683.937 37.0025 683.025 37.93C681.261 39.6954 678.009 39.5458 676.043 42.1789ZM778.624 30.4298C781.278 29.0435 788.159 24.7548 790.571 24.2062C793.155 25.9117 795.85 28.4251 797.725 30.9983C799.144 32.9432 801.11 39.0072 801.11 42.1888C801.11 43.7746 790.084 48.8912 789.162 49.1006C787.541 45.7794 787.744 41.6403 785.464 38.2193C783.396 35.0776 780.61 33.3421 778.624 30.4298ZM696.421 31.118C699.481 30.4099 700.383 29.0534 703.443 28.3553C703.008 30.2204 702.886 32.1553 702.38 34.2198C701.376 38.2193 696.583 39.5059 690.098 42.877C690.544 40.992 690.898 36.5437 691.466 35.2371C692.966 31.7962 693.959 34.4293 696.421 31.118ZM727.338 33.8807C724.805 35.5463 715.34 40.8523 712.584 41.4907C712.624 39.6754 712.939 36.7532 713.172 35.8555C714.205 32.0755 724.967 27.8765 728.037 26.2807C727.804 29.1133 727.338 30.0408 727.338 33.8807ZM696.421 31.118C694.364 31.5868 693.168 32.3248 691.506 33.1925C691.506 29.3527 691.04 28.4151 690.807 25.5826C695.154 24.5852 697.961 21.1543 702.754 20.0472C703.423 22.8797 703.454 23.2986 703.454 26.959C701.093 28.1957 697.961 29.0534 696.421 31.118ZM709.777 31.8062C710.01 21.5931 712.665 23.1989 717.64 20.1768C719.485 19.0598 720.083 18.5112 722.423 17.9726C722.423 20.4162 722.282 21.9023 721.856 23.6377C720.822 27.9164 720.174 26.191 714.56 29.592C712.716 30.729 712.118 31.2676 709.777 31.8062ZM798.303 19.359C800.299 18.9002 808.446 14.3223 810.25 13.1354C812.236 16.0577 815.246 17.7033 817.414 20.6057C818.742 22.371 820.556 29.7416 820.789 32.5043L808.142 38.7279C806.916 24.2561 802.701 27.6073 798.303 19.359ZM723.123 16.5963C718.198 17.7233 715.32 21.7327 710.476 22.1317C712.097 18.8104 710.75 18.4713 710.476 15.2199C714.144 13.3049 719.343 9.9438 722.423 9.68448L723.123 16.5963ZM785.656 14.5217C787.024 14.1627 786.74 14.3921 787.764 13.8335L788.23 21.4634L780.255 25.8918C774.844 28.8839 775.817 24.9742 775.817 20.0571C777.874 19.5684 776.83 20.1469 777.924 18.6708H776.516C776.516 14.6314 777.215 13.8435 777.215 10.3727C781.988 9.27556 784.379 5.93436 789.162 4.83725C788.382 14.1128 787.115 12.5569 785.656 14.5217ZM799.701 6.91179C797.522 7.41047 797.664 7.78947 795.486 8.29813C795.709 5.63515 796.185 6.06402 796.185 2.77269L806.024 3.46088H807.433C807.372 6.02413 807.048 5.66507 807.23 7.32071C807.423 9.13593 807.788 9.5648 808.142 11.0708C798.586 13.265 795.496 23.139 795.496 9.68448C797.634 8.56742 798.293 8.80679 799.701 6.91179ZM678.15 4.14907C682.194 2.04461 685.609 2.76272 691.496 2.76272C694.435 15.17 698.914 10.9611 700.626 17.2845C698.093 17.8629 696.492 18.9501 694.435 20.1768C692.226 21.5133 690.179 22.3611 687.98 23.4981C685.953 15.9978 680.846 24.7747 678.15 4.14907ZM815.874 6.24355C815.094 4.79736 814.891 4.57794 814.455 2.76272H822.177L815.874 6.24355ZM661.998 49.7888C663.366 49.4297 663.082 49.6591 664.105 49.1006C664.105 51.3547 663.933 53.5888 663.67 54.8953C662.971 58.2365 663.143 57.4686 660.68 58.8749C658.806 59.952 653.536 63.0838 651.459 63.6323C651.53 60.6203 652.158 59.8623 652.158 56.0224C653.678 55.015 654.58 54.7158 655.674 53.2597L652.888 54.0376C652.857 50.2376 653.678 49.33 651.459 47.7342C651.347 52.731 645.247 66.2454 645.136 71.2423C647 70.2748 648.196 69.447 650.05 68.4796C650.05 73.0675 650.081 75.9499 646.808 77.7352C643.079 79.7598 641.346 79.311 640.92 84.3876C639.512 86.5619 634.435 106.041 633.188 108.594L636.654 109.282C636.826 109.382 637.546 110.07 637.758 110.289C642.471 115.236 645.652 119.136 645.835 127.265C641.842 129.339 637.961 131.374 633.888 133.488C631.455 128.491 632.469 124.033 628.973 121.729C628.79 123.864 627.463 127.873 626.754 129.958C625.031 135.004 625.659 132.561 626.865 137.637C625.75 138.146 626.49 137.757 625.487 137.996C625.406 138.016 625.163 138.066 625.082 138.086C625 138.106 624.788 138.156 624.717 138.166C624.646 138.176 624.423 138.226 624.382 138.236C624.332 138.246 624.159 138.266 624.068 138.316C623.45 140.929 622.173 144.09 621.961 146.614H665.524C666.821 143.941 667.419 140.799 668.422 137.707L676.762 110.648L672.557 112.753C668.909 97.5829 670.814 102.969 665.352 97.6726C664.491 96.8348 662.656 94.3115 662.008 93.364C664.693 92.6558 671.25 88.5467 673.955 87.1404L681.535 94.2018C682.629 92.1173 683.937 87.4097 684.494 85.0658C682.042 84.4176 682.913 84.8065 681.687 82.9913C686.034 80.7273 686.014 81.5351 687.311 76.0795C686.267 76.6281 682.254 79.1714 681.332 79.321C677.755 79.9094 678.88 76.1094 678.88 72.6186C681.434 72.0302 681.13 72.2396 682.396 70.5441C680.552 70.963 680.329 71.1725 678.88 71.9305C678.921 70.1352 679.184 69.3173 679.346 68.2402L679.741 65.8664C680.815 61.5777 680.947 63.2832 685.609 60.5804C687.868 59.2638 689.358 58.5457 691.527 57.4187C691.527 58.7552 691.415 60.3011 692.226 61.5678C692.327 57.1394 694.232 56.3116 694.334 51.8833C692.206 53.0602 693.543 52.2523 692.925 51.8833C694.019 49.6492 693.624 48.1132 693.624 44.9715L708.378 37.3615C708.358 38.2891 708.226 39.4959 708.176 40.234C707.953 43.7547 708.186 44.5327 704.882 46.3578C703.352 47.2056 701.964 47.7442 700.16 48.6817C699.39 49.0807 698.549 49.5694 698.022 49.8287L697.333 50.1479C697.272 50.1778 697.08 50.2576 697.019 50.2775L696.441 50.4969C697.424 52.5017 696.897 51.8633 697.333 54.4565L698.336 58.3163C698.377 58.426 698.458 58.6455 698.549 58.7951C700.647 49.9384 697.282 54.6859 706.94 49.0807C708.419 48.2229 709.139 47.5148 711.196 47.046C711.145 49.33 710.902 49.7689 710.567 51.9631C710.111 55.0449 710.446 54.0276 709.088 56.0323L710.456 56.7804C710.111 61.2985 708.835 59.2439 711.196 63.6423C707.112 64.5798 705.784 67.0533 701.386 68.1903L700.282 68.4197C700.231 68.4297 700.049 68.4397 699.958 68.4796C700.951 70.5242 700.657 70.4145 700.657 73.3168C701.873 72.0601 701.842 72.1399 703.454 71.2323C704.619 70.574 705.268 70.2249 706.575 69.457C708.703 68.2103 710.912 66.9436 713.303 66.405C720.67 71.2622 721.927 76.9971 723.842 85.0758L711.196 91.2994C711.033 89.3545 709.068 82.2433 708.378 80.9367C707.527 79.3509 706.372 78.7724 705.095 77.2464C703.281 75.0821 704.305 74.7829 701.356 74.005L707.152 104.953C707.689 107.557 709.017 112.494 709.088 115.496H719.627C724.4 108.484 760.191 68.3 761.083 65.0087C759.025 65.4775 752.337 69.3672 750.544 70.5441C749.064 67.5121 748.629 61.8769 747.129 59.3835C745.396 56.5011 742.285 55.4239 740.005 51.1851C742.042 50.1279 743.876 49.3998 746.034 48.1232C748.335 46.7668 749.915 45.5899 752.651 44.9615C757.11 51.5143 757.627 49.9384 759.329 52.2224C760.16 53.3394 762.339 61.9168 762.491 63.6323C763.9 62.615 768.389 56.9898 769.514 55.3342C766.261 54.0376 768.814 51.4544 765.835 47.8838C764.285 46.0287 761.609 42.6975 759.674 42.1888V40.1143C764.467 39.0172 767.264 35.5762 771.621 34.5789C772.361 35.0676 778.239 41.2812 778.765 42.0791C779.759 43.5851 781.633 50.9856 782.16 53.2497C779.373 54.7058 775.198 57.7977 771.621 58.0869C771.55 61.1389 759.512 98.8794 758.357 102.43L744.92 146.604H789.882C789.953 143.442 791.28 140.809 792.142 137.757L816.32 58.5158C818.337 52.4219 819.644 46.8665 821.589 40.8823C824.589 31.6466 830.02 21.2041 823.322 15.4992C821.235 13.7238 818.742 11.7291 817.992 8.98632L827.588 3.9097C828.997 3.08188 828.308 3.56062 829.23 2.76272L832.625 5.6551C832.898 3.66035 833.081 3.65038 833.445 2.07453C820.444 2.07453 803.876 1.1769 791.321 2.10445C780.316 2.91233 769.351 10.3029 764.589 17.2944C766.646 16.8257 767.842 16.0876 769.503 15.2199C769.503 18.6808 768.804 19.4787 768.804 23.518C766.251 24.1065 766.555 23.897 765.288 25.5926L768.075 24.8146C768.105 28.5747 768.135 28.9836 768.804 31.8162C765.561 33.9505 761.123 36.1846 757.566 38.0398C754.921 32.624 756.593 31.1679 757.566 29.7416C757.475 29.602 757.303 29.2429 757.282 29.3327C757.262 29.4225 757.08 28.9836 757.049 28.8639C756.847 27.9364 756.867 27.9563 756.867 26.9689C756.239 27.6771 755.651 28.3453 754.952 29.233C753.219 31.4372 750.513 35.277 748.436 36.6434C748.882 38.5484 749.389 40.2739 749.845 42.1789C747.483 43.4056 745.811 44.8319 743.096 45.7096C740.289 46.6271 742.711 44.7321 740.603 46.9064C739.174 48.3825 740.268 48.2229 737.897 49.7888C737.745 42.9668 734.381 35.7059 734.381 29.0435C732.263 31.4471 733.327 30.8886 732.273 30.4298C732.273 20.9947 734.888 20.3963 729.811 20.7453C729.76 20.7453 729.568 20.8052 729.466 20.7453C729.466 14.053 732.395 15.3695 728.189 10.253C726.122 7.73961 722.494 4.96691 718.927 4.14907L720.427 6.14381C717.124 7.90916 710.648 11.769 707.679 12.4472C704.589 10.4126 701.052 6.12386 699.248 2.76272L665.524 2.07453C665.261 5.21625 663.447 9.35535 662.717 12.4472C664.926 11.3002 668.291 9.22569 671.148 8.98632L674.138 19.8676C676.428 23.0493 678.647 23.3186 680.978 27.6571L668.331 33.8807C660.974 23.0692 660.599 29.7416 660.599 20.0472L658.4 26.181C657.772 28.1857 656.88 31.0482 656.384 33.1826C658.978 33.8608 660.69 36.0849 662.008 38.0198C658.725 38.8875 656.627 42.1789 653.577 40.7825C653.506 43.9043 652.776 44.4329 652.168 47.0061C655.887 45.0712 659.697 42.7174 663.406 40.7825C664.602 43.0166 664.541 44.4429 664.815 47.6943C662.444 48.941 663.497 47.7741 661.998 49.7888ZM757.546 29.7317C760.15 29.1332 763.91 27.4178 765.278 25.5826C762.663 26.181 758.914 27.8965 757.546 29.7317ZM641.619 92.6658C644.132 92.0873 646.615 90.9902 647.943 89.2049C645.429 89.7834 642.947 90.8805 641.619 92.6658ZM655.674 53.2497C658.188 52.6712 660.67 51.5741 661.998 49.7888C659.485 50.3673 657.002 51.4644 655.674 53.2497ZM661.998 81.605C664.511 81.0265 666.994 79.9294 668.321 78.1441C665.808 78.7126 663.325 79.8197 661.998 81.605ZM702.744 59.4733C705.257 58.8948 707.74 57.7977 709.068 56.0124C706.554 56.5909 704.072 57.688 702.744 59.4733ZM779.333 17.9826C781.846 17.4041 784.329 16.307 785.656 14.5217C783.143 15.1002 780.66 16.1973 779.333 17.9826ZM682.366 70.5341C684.879 69.9557 687.362 68.8585 688.689 67.0732C686.186 67.6517 683.704 68.7488 682.366 70.5341ZM799.701 6.91179C802.214 6.33331 804.697 5.2362 806.024 3.45091C803.511 4.02938 801.029 5.12649 799.701 6.91179ZM702.744 59.4733C701.407 59.7725 701.082 59.8623 699.725 60.351C697.86 61.0292 698.833 58.7851 698.529 62.236C700.667 61.1189 701.336 61.3683 702.744 59.4733ZM715.391 3.45091C716.11 4.15904 717.934 2.45353 716.202 3.08188C716.191 3.09185 714.215 2.29396 715.391 3.45091ZM688.689 67.0732L690.057 67.8213C689.753 66.8538 690.544 67.163 689.672 66.8838C688.324 66.4449 689.642 66.5546 688.689 67.0732ZM695.012 49.1006C695.012 50.8161 696.137 49.2801 695.448 49.1006C695.448 49.0906 695.012 47.1358 695.012 49.1006ZM631.78 112.713C631.78 114.428 632.905 112.893 632.216 112.713C632.205 112.713 631.78 110.758 631.78 112.713ZM829.919 11.759C829.919 13.4745 831.044 11.9385 830.355 11.759C830.345 11.749 829.919 9.79419 829.919 11.759ZM730.854 15.9081C730.854 17.6236 731.979 16.0876 731.29 15.9081C731.28 15.8981 730.854 13.9433 730.854 15.9081ZM684.474 83.6695C684.474 85.385 685.598 83.849 684.909 83.6695C684.899 83.6695 684.474 81.7147 684.474 83.6695ZM678.15 104.415C678.15 106.13 679.275 104.594 678.586 104.415C678.586 104.415 678.15 102.46 678.15 104.415ZM690.797 62.9242C690.797 64.6397 691.922 63.1037 691.233 62.9242C691.233 62.9242 690.797 60.9693 690.797 62.9242ZM699.228 64.9987C699.228 66.7142 700.353 65.1782 699.664 64.9987C699.664 64.9987 699.228 63.0439 699.228 64.9987ZM732.952 26.2807C732.952 27.9962 734.077 26.4603 733.388 26.2807C733.388 26.2708 732.952 24.3159 732.952 26.2807ZM680.258 97.5031C680.258 99.2185 681.383 97.6826 680.694 97.5031C680.694 97.5031 680.258 95.5482 680.258 97.5031ZM629.672 119.635C629.672 121.35 630.797 119.814 630.108 119.635C630.098 119.635 629.672 117.67 629.672 119.635ZM688.689 69.8459C688.689 71.5614 689.814 70.0255 689.125 69.8459C689.125 69.836 688.689 67.8811 688.689 69.8459ZM827.811 18.6708C827.811 20.3863 828.936 18.8503 828.247 18.6708C828.237 18.6708 827.811 16.706 827.811 18.6708ZM632.489 110.648C632.489 112.364 633.614 110.828 632.925 110.648C632.915 110.638 632.489 108.684 632.489 110.648ZM655.674 34.5789C655.674 36.2944 656.799 34.7584 656.11 34.5789C656.1 34.5689 655.674 32.6141 655.674 34.5789ZM830.618 9.68448C830.618 11.4 831.743 9.86401 831.054 9.68448C831.044 9.67451 830.618 7.71966 830.618 9.68448ZM677.451 106.489C677.451 108.205 678.576 106.669 677.887 106.489C677.877 106.489 677.451 104.535 677.451 106.489ZM630.381 117.56C630.381 119.276 631.506 117.74 630.817 117.56C630.807 117.56 630.381 115.595 630.381 117.56ZM731.554 18.6708C731.554 20.3863 732.678 18.8503 731.989 18.6708C731.979 18.6708 731.554 16.706 731.554 18.6708ZM643.028 76.0695C643.028 77.785 644.153 76.2491 643.464 76.0695C643.453 76.0695 643.028 74.1047 643.028 76.0695ZM828.51 16.5963C828.51 18.3117 829.635 16.7758 828.946 16.5963C828.936 16.5963 828.51 14.6314 828.51 16.5963ZM772.3 56.7106C772.3 58.426 773.425 56.8901 772.736 56.7106C772.726 56.7006 772.3 54.7457 772.3 56.7106ZM679.559 99.5776C679.559 101.293 680.684 99.7571 679.995 99.5776C679.985 99.5776 679.559 97.6128 679.559 99.5776ZM687.99 71.9205C687.99 73.636 689.115 72.1 688.426 71.9205C688.416 71.9205 687.99 69.9557 687.99 71.9205ZM774.408 49.7888C774.408 51.5043 775.533 49.9683 774.844 49.7888C774.844 49.7888 774.408 47.824 774.408 49.7888ZM643.727 73.995C643.727 75.7105 644.852 74.1745 644.163 73.995C644.153 73.995 643.727 72.0302 643.727 73.995ZM654.266 39.4161C654.266 41.1316 655.391 39.5957 654.702 39.4161C654.692 39.4161 654.266 37.4513 654.266 39.4161ZM660.589 18.6708C660.589 20.3863 661.714 18.8503 661.025 18.6708C661.015 18.6708 660.589 16.706 660.589 18.6708ZM645.136 71.2223H644.436L645.024 72.0302L645.136 71.2223ZM769.493 55.3242H770.193L769.605 54.5163L769.493 55.3242ZM763.17 19.359H763.869L763.281 18.5511L763.17 19.359ZM760.363 22.8199H761.062L760.475 22.012L760.363 22.8199ZM746.308 40.1043H745.609L746.197 40.9122L746.308 40.1043ZM772.3 51.8633H771.601L772.189 52.6712L772.3 51.8633ZM743.501 43.5652H744.2L743.612 42.7573L743.501 43.5652ZM746.308 40.1043H747.007L746.419 39.2965L746.308 40.1043ZM743.501 43.5652H742.802L743.39 44.3731L743.501 43.5652ZM762.471 20.0571H761.772L762.359 20.865L762.471 20.0571ZM757.546 26.2807H758.245L757.657 25.4729L757.546 26.2807ZM760.363 22.8199H759.664L760.252 23.6277L760.363 22.8199ZM694.313 51.8633H695.012L694.425 51.0555L694.313 51.8633ZM654.965 37.3416C655.036 37.4114 655.178 37.0424 655.178 37.1322C655.168 37.1521 654.894 37.2718 654.965 37.3416ZM690.098 65.6969C690.169 65.7667 690.311 65.3977 690.311 65.4874C690.29 65.4974 690.027 65.6271 690.098 65.6969ZM676.752 109.262C676.823 109.332 676.955 108.953 676.955 109.053C676.945 109.073 676.681 109.192 676.752 109.262ZM661.998 14.5217C662.069 14.5915 662.211 14.2125 662.211 14.3123C662.19 14.3322 661.927 14.4519 661.998 14.5217ZM687.291 74.6832L687.504 74.4737C687.483 74.4937 687.22 74.6134 687.291 74.6832ZM642.319 78.8323L642.531 78.6228C642.521 78.6428 642.248 78.7625 642.319 78.8323ZM680.968 95.4285L681.18 95.2191C681.16 95.239 680.897 95.3587 680.968 95.4285ZM827.112 21.4335L827.315 21.2241C827.305 21.244 827.031 21.3637 827.112 21.4335ZM661.288 16.5963L661.501 16.3868C661.491 16.4068 661.217 16.5264 661.288 16.5963ZM678.86 102.35L679.062 102.141C679.052 102.151 678.789 102.271 678.86 102.35ZM773.01 54.6261L773.222 54.4166C773.202 54.4366 772.939 54.5562 773.01 54.6261ZM829.21 14.5217L829.422 14.3123C829.412 14.3322 829.149 14.4519 829.21 14.5217ZM831.328 7.60995L831.54 7.4005C831.52 7.41047 831.257 7.54013 831.328 7.60995ZM695.722 47.7143L695.935 47.5048C695.914 47.5248 695.651 47.6445 695.722 47.7143ZM631.081 115.486L631.293 115.276C631.273 115.296 631.01 115.416 631.081 115.486ZM624.757 136.231L624.97 136.022C624.95 136.042 624.686 136.161 624.757 136.231Z" fill="#3364A3"/>
</svg>
